PathFileType	4	(X/Y/Z)	C:\Git\research_data\torsion_deformities_healthy_kinematics\simulations\TD07\pre\static_01\markers.trc
DataRate	CameraRate	NumFrames	NumMarkers	Units	OrigDataRate	OrigDataStartFrame	OrigNumFrames
200.000000	200.000000	6	34	mm	200.000000	60	120
Frame#	Time	C7			T10			CLAV			STRN			RBAK			LASI			RASI			SACR			RT1			RT2			RT3			RKNE			RS1			RS2			RS3			RANK			RHEE			RTOE			RM5D			LT1			LT2			LT3			LKNE			LS1			LS2			LS3			LANK			LHEE			LTOE			LM5D			RANKM			LANKM			RKNEM			LKNEM			
		X1	Y1	Z1	X2	Y2	Z2	X3	Y3	Z3	X4	Y4	Z4	X5	Y5	Z5	X6	Y6	Z6	X7	Y7	Z7	X8	Y8	Z8	X9	Y9	Z9	X10	Y10	Z10	X11	Y11	Z11	X12	Y12	Z12	X13	Y13	Z13	X14	Y14	Z14	X15	Y15	Z15	X16	Y16	Z16	X17	Y17	Z17	X18	Y18	Z18	X19	Y19	Z19	X20	Y20	Z20	X21	Y21	Z21	X22	Y22	Z22	X23	Y23	Z23	X24	Y24	Z24	X25	Y25	Z25	X26	Y26	Z26	X27	Y27	Z27	X28	Y28	Z28	X29	Y29	Z29	X30	Y30	Z30	X31	Y31	Z31	X32	Y32	Z32	X33	Y33	Z33	X34	Y34	Z34	

61	0.3	653.8978881835936	1228.149169921875	348.4483337402343	662.9753417968749	1004.836608886719	345.0567626953124	668.4087524414061	1200.335083007812	221.9144287109375	669.3167114257811	1068.072021484375	153.6602630615234	756.3670654296874	1095.989135742188	359.8517761230468	546.9393310546875	797.2636108398438	207.8380737304687	802.801513671875	833.1829223632812	199.1844482421874	672.7252197265625	853.85888671875	357.3841552734374	864.9691772460938	607.3450317382812	310.0676879882812	862.52001953125	546.9699096679688	337.8746032714843	875.4134521484375	545.7425537109375	288.9172058105468	881.4691162109375	442.3558044433594	299.7021484374999	915.7167358398438	350.4059753417969	351.9608764648437	922.2088623046875	287.3425292968751	377.0064697265624	937.7984008789062	293.0852050781251	326.8402404785156	962.290771484375	87.33940887451178	321.9576110839843	922.9853515625	45.91995239257818	358.8517761230468	978.9048461914062	47.61717987060553	167.4833679199218	1003.11474609375	34.42253112792975	257.7718505859374	482.1841735839843	615.6005249023438	255.6425628662109	472.8591918945312	559.5098266601562	291.1377868652343	481.9693603515624	551.073974609375	240.6252136230468	452.7383117675781	421.9323425292969	305.0196533203125	400.7979736328125	310.1595153808594	318.9679260253906	386.0736083984375	255.4499053955078	353.558837890625	381.277099609375	248.7445678710938	302.8983764648438	348.8478393554688	71.21415710449222	335.0544738769531	387.1837158203125	43.29795074462893	357.6316833496094	297.8764038085938	42.68769454956057	178.7018890380859	286.2378540039062	29.73710632324221	273.3514404296875	888.3773803710938	74.99955749511724	278.3661804199218	407.2960205078125	67.51805114746097	271.8923950195312	792.6297607421875	404.7823181152344	268.3280029296874	542.1316528320312	383.2194519042969	261.7521972656249	
62	0.305	653.8852539062499	1228.174194335938	348.4206237792968	663.0031738281249	1004.842590332031	345.0476379394531	668.3825073242186	1200.343872070312	221.8788604736328	669.2748413085936	1068.084594726562	153.6221923828125	756.3756103515624	1096.006103515625	359.8086242675781	546.9222412109375	797.274658203125	207.8637237548828	802.7827758789062	833.1798706054688	199.1529846191406	672.7427978515625	853.8611450195312	357.3796997070312	864.95458984375	607.3515625	310.0395812988281	862.490478515625	546.9773559570312	337.8824462890624	875.4070434570312	545.7449340820312	288.8913879394531	881.4622802734375	442.3604736328126	299.6897583007812	915.7177124023438	350.4092102050782	351.9511413574218	922.2108764648438	287.3505859375001	376.9928283691406	937.7962036132812	293.0905151367188	326.8300170898437	962.2894287109375	87.34161376953131	321.9562988281249	922.985595703125	45.91992950439459	358.8520812988281	978.9030151367188	47.61569976806646	167.4840240478515	1003.116638183594	34.42307281494147	257.7677307128906	482.1709899902343	615.6075439453125	255.6643676757812	472.8502502441406	559.5137329101562	291.1559753417968	481.9464721679687	551.0848999023438	240.6409301757812	452.7319641113281	421.9343872070312	305.0232543945312	400.7940673828125	310.1599731445312	318.97021484375	386.0739440917969	255.4518280029297	353.5575866699219	381.2745971679688	248.7449340820313	302.9000244140625	348.853271484375	71.21405029296878	335.0537109375	387.1862182617188	43.29840087890627	357.6303100585938	297.8750305175781	42.68709945678713	178.7017974853515	286.2388610839844	29.73717880249025	273.3514099121094	888.3758544921875	74.99895477294928	278.3676452636718	407.2971801757812	67.51824951171878	271.8909912109375	792.6211547851562	404.7809448242188	268.3258666992187	542.1238403320312	383.2248229980469	261.7528686523437	
63	0.31	653.8732910156249	1228.198608398438	348.3929138183593	663.0311279296874	1004.848449707031	345.0380249023437	668.3564453124999	1200.352661132812	221.8432159423828	669.2322387695311	1068.097290039062	153.5838165283203	756.3840332031249	1096.021850585938	359.7647705078124	546.90478515625	797.28564453125	207.888198852539	802.7635498046875	833.1768798828125	199.1192321777343	672.7607421875	853.8632202148438	357.3735351562499	864.9400024414062	607.3582763671875	310.0095214843749	862.4613037109375	546.98486328125	337.8884582519531	875.4005126953125	545.7472534179688	288.8637390136718	881.4554443359375	442.3651733398438	299.6759338378906	915.718505859375	350.4126586914063	351.9399719238281	922.2127075195312	287.3591918945313	376.9784240722656	937.7940063476562	293.0957641601563	326.8190002441406	962.287841796875	87.34384918212896	321.9550170898437	922.9857788085938	45.91991806030279	358.8522949218749	978.9012451171875	47.61410522460943	167.4846801757812	1003.118713378906	34.42361831665045	257.7633361816406	482.1577148437499	615.6145629882812	255.6851348876953	472.8413696289062	559.5177001953125	291.1731262207031	481.9230346679687	551.0960083007812	240.6554412841797	452.7257080078125	421.9364624023438	305.0260925292969	400.7902526855469	310.1604309082031	318.9719543457031	386.0743408203125	255.4537200927735	353.5560302734375	381.2721557617188	248.7452850341797	302.9012756347656	348.8587646484375	71.21399688720706	335.0528869628906	387.188720703125	43.29894638061526	357.6289367675781	297.8736877441406	42.68650817871096	178.701675415039	286.2398681640625	29.73730468750002	273.3513488769531	888.3742065429688	74.99828338623053	278.3690185546874	407.29833984375	67.51836395263675	271.8895263671875	792.612548828125	404.7795410156251	268.3226013183593	542.1160278320312	383.2300720214844	261.7526550292968	
64	0.315	653.8620605468749	1228.22265625	348.3652343749999	663.0590820312499	1004.854187011719	345.0278930664062	668.3305053710936	1200.361450195312	221.8075103759765	669.1888427734374	1068.109985351562	153.5451507568359	756.3923339843749	1096.03662109375	359.7201843261718	546.886962890625	797.296630859375	207.9114990234375	802.743896484375	833.1739501953125	199.0832061767578	672.7791748046875	853.8651123046875	357.3656311035156	864.9254150390625	607.3650512695312	309.9775085449218	862.4326782226562	546.992431640625	337.8925476074218	875.393798828125	545.7496337890625	288.8342895507812	881.4486083984375	442.3699035644532	299.6607666015624	915.718994140625	350.4163208007813	351.9273376464843	922.2142944335938	287.3683471679688	376.9632263183593	937.791748046875	293.1010131835938	326.8071594238281	962.2860717773438	87.34610748291021	321.9537048339843	922.98583984375	45.91991043090826	358.8524169921874	978.8994140625	47.61239242553717	167.4853363037109	1003.120910644531	34.42416381835944	257.7586669921874	482.1444091796874	615.6215209960938	255.704833984375	472.8325805664062	559.5216674804688	291.1892395019531	481.8990173339843	551.1072998046875	240.6687469482422	452.7195434570312	421.9385070800781	305.0281982421875	400.7865295410156	310.1609497070312	318.9732055664062	386.0747375488281	255.4555816650391	353.55419921875	381.2697448730469	248.7456359863282	302.9021606445312	348.8643798828125	71.21399688720706	335.0519714355469	387.1911926269531	43.29959106445315	357.6276245117188	297.8723449707031	42.68592834472658	178.7015228271484	286.2409057617188	29.73748588562013	273.3512268066406	888.3723754882812	74.99755096435553	278.3702697753906	407.2995910644531	67.51841735839847	271.887939453125	792.6039428710938	404.7781066894532	268.3182373046874	542.1082763671875	383.2351989746094	261.7515258789062	
65	0.32	653.8515014648436	1228.246215820312	348.3375549316406	663.0871582031249	1004.859802246094	345.0172424316406	668.3047485351561	1200.3701171875	221.7717590332031	669.1446533203124	1068.122680664062	153.5061645507812	756.4005737304686	1096.05029296875	359.6748657226562	546.8687744140625	797.3074951171875	207.933609008789	802.723876953125	833.1710205078125	199.0448913574218	672.7979736328125	853.8668823242188	357.3560180664062	864.9108276367188	607.3718872070312	309.9435424804687	862.4044799804688	547.0000610351562	337.8945922851562	875.3870239257812	545.751953125	288.8030395507812	881.4417114257812	442.3746337890626	299.6441650390624	915.71923828125	350.4202270507813	351.9132080078124	922.2156372070312	287.3781127929688	376.9472351074218	937.7894897460938	293.1062011718751	326.7945556640624	962.2841186523438	87.34838867187506	321.9523925781249	922.9859008789062	45.91991043090826	358.8524475097656	978.8975219726562	47.61057281494146	167.4859771728515	1003.123229980469	34.42471694946295	257.7536621093749	482.1310119628906	615.6283569335938	255.7234802246093	472.8238525390624	559.5255737304688	291.2043762207031	481.8744201660156	551.1187133789062	240.6808624267578	452.7134399414062	421.9405517578125	305.0295104980469	400.7828979492188	310.1614990234375	318.9739685058594	386.0752258300781	255.4573822021485	353.5520324707031	381.2674255371094	248.7459564208985	302.9026794433594	348.8700256347656	71.21405029296878	335.0509948730469	387.1936950683594	43.30033111572268	357.6263122558594	297.8709716796875	42.68535995483401	178.7013244628906	286.2419738769531	29.7377223968506	273.3511047363281	888.3704223632812	74.99674224853521	278.3714294433593	407.3008422851562	67.51838684082034	271.8862915039062	792.5952758789062	404.7766723632813	268.3127746582031	542.1005249023438	383.2402038574219	261.7495117187499	
66	0.325	653.8416748046874	1228.269287109375	348.3099060058593	663.1152343749999	1004.865234375	345.0061035156249	668.2791748046874	1200.378662109375	221.7359771728515	669.0997314453124	1068.135498046875	153.4668884277343	756.4086914062499	1096.062866210938	359.6288757324218	546.8502197265625	797.318359375	207.9545593261718	802.703369140625	833.1681518554688	199.0042877197265	672.8171997070312	853.868408203125	357.3446960449218	864.8963012695312	607.3788452148438	309.9076232910156	862.3768920898438	547.0076904296875	337.8945922851562	875.3800659179688	545.7542114257812	288.7700195312499	881.4348754882812	442.3793945312501	299.6261901855468	915.71923828125	350.4243469238282	351.8976135253906	922.2167358398438	287.3884277343751	376.9304199218749	937.7872314453125	293.1113586425782	326.7811584472656	962.281982421875	87.35069274902349	321.9510498046874	922.98583984375	45.91991806030279	358.8524169921874	978.8956909179688	47.60863494873053	167.4866180419921	1003.125732421875	34.42527389526374	257.7483520507812	482.1175842285156	615.6351928710938	255.7410736083984	472.8152160644531	559.5294799804688	291.2184753417968	481.8492736816406	551.1302490234375	240.6917877197265	452.7073974609375	421.942626953125	305.0300598144531	400.7793579101562	310.1620788574219	318.9741821289062	386.0757141113281	255.4591522216797	353.5495910644531	381.2651672363281	248.7462615966797	302.90283203125	348.8757934570312	71.21415710449222	335.0499572753906	387.1961669921875	43.30116653442385	357.6250305175781	297.8695983886719	42.68479537963869	178.7011108398437	286.2430419921875	29.73801422119142	273.3509216308594	888.3682861328125	74.99587249755865	278.3724670410156	407.3021850585938	67.51828765869143	271.884521484375	792.586669921875	404.7752075195313	268.3061828613281	542.0927734375	383.2450866699219	261.7466125488281	
